<svg height="62" viewBox="0 0 76 62" width="76" xmlns="http://www.w3.org/2000/svg"><path d="m0 0h76v62h-76z" fill="none"/><path d="m64.715 27.375v23.925c0 .143-.021.266-.028.4l-17.681-17.543 9.306-9.177a14.726 14.726 0 0 1 -1.812-1.38 13.244 13.244 0 0 1 -1.566-1.664l-13.892 13.744a8.239 8.239 0 0 1 -1.942 1.462 3.965 3.965 0 0 1 -1.814.467 4.023 4.023 0 0 1 -1.845-.467 7.744 7.744 0 0 1 -1.907-1.462l-23.364-23.151a5.846 5.846 0 0 1 2.378-.458h38.912a12.947 12.947 0 0 1 .233-2.471 14.586 14.586 0 0 1 .636-2.286h-40.529a8.571 8.571 0 0 0 -6.5 2.411q-2.3 2.408-2.3 7.199v34.34q0 4.821 2.433 7.236t7.3 2.411h49.92a8.572 8.572 0 0 0 6.5-2.411q2.31-2.411 2.31-7.232v-24.768a14.3 14.3 0 0 1 -2.31.622 15.734 15.734 0 0 1 -2.438.253zm-58.936 24.431c-.012-.181-.037-.35-.037-.542v-34.34c0-.116.018-.215.023-.328l17.8 17.551zm54.13 4.341h-49.361a5.99 5.99 0 0 1 -2.255-.4l18.524-18.393 2.025 2a10.958 10.958 0 0 0 3.209 2.333 7.854 7.854 0 0 0 3.24.715 7.749 7.749 0 0 0 3.225-.715 11.428 11.428 0 0 0 3.224-2.333l2.012-1.985 18.466 18.343a5.835 5.835 0 0 1 -2.309.436zm13.828-49.208a11.071 11.071 0 0 0 -3.906-3.919 10.656 10.656 0 0 0 -10.774 0 11.113 11.113 0 0 0 -3.891 3.919 10.414 10.414 0 0 0 -1.457 5.412 10.414 10.414 0 0 0 1.457 5.412 11.113 11.113 0 0 0 3.891 3.919 10.657 10.657 0 0 0 10.774 0 11.071 11.071 0 0 0 3.907-3.919 10.413 10.413 0 0 0 1.457-5.412 10.413 10.413 0 0 0 -1.458-5.412z" fill="#fff" fill-rule="evenodd"/></svg>