<svg height="69.688" viewBox="0 0 70.688 69.688" width="70.688" xmlns="http://www.w3.org/2000/svg"><path d="m50.094 44.35a7.6 7.6 0 0 0 4.787-1.617 9.805 9.805 0 0 0 3.155-4.661h17.534a25.772 25.772 0 0 1 -7.286 16.212 25.812 25.812 0 0 1 -28.156 5.524q-.736-.317-1.443-.673l9.211-15.1a9.664 9.664 0 0 0 1.24.251 8.01 8.01 0 0 0 .957.063m.063-4.426a3.7 3.7 0 0 1 -2.684-1.13 3.659 3.659 0 0 1 -1.146-2.7 3.594 3.594 0 0 1 1.146-2.7 3.866 3.866 0 0 1 5.4 0 3.594 3.594 0 0 1 1.146 2.7 3.659 3.659 0 0 1 -1.146 2.7 3.736 3.736 0 0 1 -2.715 1.13m-15.082 17a25.094 25.094 0 0 1 -3.044-2.641 25.615 25.615 0 0 1 -5.415-8.224 26 26 0 0 1 -1.947-10.058 26 26 0 0 1 1.946-10.06 25.616 25.616 0 0 1 5.415-8.224 25.075 25.075 0 0 1 3.258-2.8l9.094 15.492a9.086 9.086 0 0 0 -1.9 2.747 7.457 7.457 0 0 0 -.612 2.966 7.134 7.134 0 0 0 .6 2.856 9.833 9.833 0 0 0 1.883 2.762l-9.279 15.186m3.826-44.168q.6-.3 1.228-.566a25.458 25.458 0 0 1 28.156 5.524 25.772 25.772 0 0 1 7.291 16.275h-17.54a9.7 9.7 0 0 0 -3.186-4.551 7.706 7.706 0 0 0 -4.755-1.57 7.608 7.608 0 0 0 -.942.063q-.5.063-1.256.22l-9-15.4m17.048-11.588a1.757 1.757 0 0 0 -.8.183 1.642 1.642 0 0 0 -.753.753l-1.791 3.453q-.659-.063-1.24-.094t-1.209-.031q-.628 0-1.224.031t-1.224.094l-1.816-3.453a1.642 1.642 0 0 0 -.753-.753 1.756 1.756 0 0 0 -.8-.183 2.252 2.252 0 0 0 -.334.026 1.659 1.659 0 0 0 -.989.518 1.726 1.726 0 0 0 -.455 1.02l-.556 3.767q-1.161.345-2.307.753t-2.276.91l-2.825-2.48a1.594 1.594 0 0 0 -1-.534 1.716 1.716 0 0 0 -.188-.01 1.924 1.924 0 0 0 -.942.262 1.694 1.694 0 0 0 -.816 1.978l.785 3.735a24 24 0 0 0 -1.93 1.46q-.957.8-1.836 1.616l-3.484-1.412a1.969 1.969 0 0 0 -.748-.161 1.734 1.734 0 0 0 -1.355.726 1.63 1.63 0 0 0 -.455.989 1.467 1.467 0 0 0 .3 1.02l2.04 3.3q-.691 1-1.287 2.056t-1.13 2.182l-3.846-.162h-.113a1.736 1.736 0 0 0 -.986.285 1.8 1.8 0 0 0 -.691.91 1.851 1.851 0 0 0 -.031 1.114 1.6 1.6 0 0 0 .659.863l3.013 2.417q-.314 1.161-.534 2.354a18.658 18.658 0 0 0 -.282 2.448l-3.672 1.161a1.793 1.793 0 0 0 -.926.628 1.918 1.918 0 0 0 0 2.15 2.024 2.024 0 0 0 .926.644l3.672 1.161a19.111 19.111 0 0 0 .282 2.464q.22 1.208.534 2.339l-3.013 2.386a1.8 1.8 0 0 0 -.628.91 2.07 2.07 0 0 0 0 1.13 1.805 1.805 0 0 0 .691.91 1.736 1.736 0 0 0 .986.285h.113l3.829-.188q.534 1.13 1.13 2.2a22.431 22.431 0 0 0 1.287 2.04l-2.04 3.264a1.7 1.7 0 0 0 -.3 1.083 1.631 1.631 0 0 0 .455.989 1.735 1.735 0 0 0 1.355.726 1.97 1.97 0 0 0 .748-.161l3.484-1.475q.879.879 1.836 1.664t1.93 1.444l-.785 3.767a2 2 0 0 0 .078 1.146 1.525 1.525 0 0 0 .738.8 2.061 2.061 0 0 0 .961.261 1.617 1.617 0 0 0 .184-.01 1.642 1.642 0 0 0 .989-.5l2.825-2.543q1.13.5 2.276.926t2.32.728l.565 3.8a1.758 1.758 0 0 0 .455 1.052 1.66 1.66 0 0 0 .98.515 2.248 2.248 0 0 0 .333.026 1.756 1.756 0 0 0 .8-.183 1.617 1.617 0 0 0 .753-.785l1.821-3.453q.628.063 1.224.11t1.224.047q.628 0 1.209-.047t1.24-.11l1.789 3.453a1.617 1.617 0 0 0 .753.785 1.793 1.793 0 0 0 .813.183 2.461 2.461 0 0 0 .348-.026 1.64 1.64 0 0 0 .957-.518 1.927 1.927 0 0 0 .486-1.052l.534-3.8q1.161-.314 2.323-.738t2.26-.926l2.825 2.543a1.653 1.653 0 0 0 1 .5 1.7 1.7 0 0 0 .188.01 1.924 1.924 0 0 0 .942-.261 1.524 1.524 0 0 0 .738-.8 2 2 0 0 0 .079-1.146l-.779-3.762q.973-.659 1.93-1.444t1.836-1.664l3.484 1.475a1.976 1.976 0 0 0 .751.161 1.8 1.8 0 0 0 1.383-.726 1.715 1.715 0 0 0 .424-.989 1.694 1.694 0 0 0 -.3-1.083l-2.04-3.264a17.265 17.265 0 0 0 1.3-2.04q.581-1.067 1.114-2.2l3.861.188h.108a1.762 1.762 0 0 0 .98-.274 1.625 1.625 0 0 0 .675-.91 1.767 1.767 0 0 0 .016-1.114 1.893 1.893 0 0 0 -.644-.926l-3.013-2.386q.314-1.13.549-2.339a21.063 21.063 0 0 0 .33-2.5l3.61-1.13a2.079 2.079 0 0 0 .942-.659 1.822 1.822 0 0 0 0-2.134 1.882 1.882 0 0 0 -.942-.628l-3.614-1.162a20.553 20.553 0 0 0 -.33-2.448q-.235-1.193-.549-2.354l3.013-2.417a1.736 1.736 0 0 0 .644-.863 1.77 1.77 0 0 0 -.016-1.114 1.625 1.625 0 0 0 -.675-.91 1.762 1.762 0 0 0 -.975-.285h-.108l-3.861.157q-.534-1.13-1.114-2.181a20.5 20.5 0 0 0 -1.3-2.056l2.04-3.264a1.577 1.577 0 0 0 .3-1.052 1.714 1.714 0 0 0 -.424-.989 1.8 1.8 0 0 0 -1.383-.726 1.976 1.976 0 0 0 -.751.161l-3.484 1.412q-.879-.816-1.836-1.616a23.978 23.978 0 0 0 -1.93-1.46l.785-3.735a2.1 2.1 0 0 0 -.08-1.172 1.524 1.524 0 0 0 -.738-.8 1.924 1.924 0 0 0 -.942-.262 1.713 1.713 0 0 0 -.188.01 1.594 1.594 0 0 0 -1 .534l-2.825 2.48a23.6 23.6 0 0 0 -2.26-.895q-1.161-.392-2.323-.738l-.534-3.8a1.9 1.9 0 0 0 -.486-1.02 1.659 1.659 0 0 0 -.989-.518 2.252 2.252 0 0 0 -.333-.026" fill="#f55e9e" fill-rule="evenodd" transform="translate(-14.813 -1.156)"/></svg>